<svg width="34" height="34" viewBox="0 0 34 34" fill="none" xmlns="http://www.w3.org/2000/svg">
<path fill-rule="evenodd" clip-rule="evenodd" d="M16 32C24.837 32 32 24.837 32 16C32 7.164 24.837 0 16 0C11.582 0 8 3.582 8 8C8 12.418 11.582 16 16 16C20.418 16 24 19.582 24 24C24 28.418 20.418 32 16 32ZM12 8C12 5.8 13.8022 4 16 4C18.1978 4 20 5.8 20 8C20 10.2 18.1978 12 16 12C13.8022 12 12 10.2 12 8Z" transform="translate(1 1)" fill="#231F20"/>
<path d="M18 24C18 22.896 17.104 22 16 22C14.896 22 14 22.896 14 24C14 25.104 14.896 26 16 26C17.104 26 18 25.104 18 24Z" transform="translate(1 1)" fill="#231F20"/>
<path d="M16 32C24.837 32 32 24.837 32 16C32 7.164 24.837 0 16 0M16 32C7.164 32 0 24.837 0 16C0 7.164 7.164 0 16 0M16 32C20.418 32 24 28.418 24 24C24 19.582 20.418 16 16 16C11.582 16 8 12.418 8 8C8 3.582 11.582 0 16 0M16 4C13.8022 4 12 5.8 12 8C12 10.2 13.8022 12 16 12C18.1978 12 20 10.2 20 8C20 5.8 18.1978 4 16 4ZM18 24C18 22.896 17.104 22 16 22C14.896 22 14 22.896 14 24C14 25.104 14.896 26 16 26C17.104 26 18 25.104 18 24Z" transform="translate(1 1)" stroke="#231F20" stroke-width="2" stroke-miterlimit="10"/>
</svg>
