<svg width="34" height="34" viewBox="0 0 34 34" fill="none" xmlns="http://www.w3.org/2000/svg">
<path d="M4 2C4 0.89543 3.10457 0 2 0C0.89543 0 0 0.89543 0 2C0 3.10457 0.89543 4 2 4C3.10457 4 4 3.10457 4 2Z" transform="translate(15 23)" fill="#231F20" stroke="#231F20"/>
<path fill-rule="evenodd" clip-rule="evenodd" d="M16 32C24.837 32 32 24.837 32 16C32 7.164 24.837 0 16 0C11.582 0 8 3.582 8 8C8 12.418 11.582 16 16 16C20.418 16 24 19.582 24 24C24 28.418 20.418 32 16 32ZM13 8C13 6.29779 14.2994 5 16 5C17.7006 5 19 6.29779 19 8C19 9.70221 17.7006 11 16 11C14.2994 11 13 9.70221 13 8Z" transform="translate(1 1)" fill="#231F20"/>
<path d="M16 32C24.837 32 32 24.837 32 16C32 7.164 24.837 0 16 0M16 32C7.164 32 0 24.837 0 16C0 7.164 7.164 0 16 0M16 32C20.418 32 24 28.418 24 24C24 19.582 20.418 16 16 16C11.582 16 8 12.418 8 8C8 3.582 11.582 0 16 0M16 5C14.2994 5 13 6.29779 13 8C13 9.70221 14.2994 11 16 11C17.7006 11 19 9.70221 19 8C19 6.29779 17.7006 5 16 5Z" transform="translate(1 1)" stroke="#231F20" stroke-width="2" stroke-miterlimit="10"/>
</svg>
