<?xml version="1.0" encoding="utf-8"?>
<!-- Generator: Adobe Illustrator 15.0.0, SVG Export Plug-In . SVG Version: 6.00 Build 0)  -->
<!DOCTYPE svg PUBLIC "-//W3C//DTD SVG 1.1//EN" "http://www.w3.org/Graphics/SVG/1.1/DTD/svg11.dtd">
<svg version="1.1" id="Layer_1" xmlns="http://www.w3.org/2000/svg" xmlns:xlink="http://www.w3.org/1999/xlink" x="0px" y="0px"
	 width="38px" height="38px" viewBox="0 0 38 38" enable-background="new 0 0 38 38" xml:space="preserve">
<path fill="none" stroke="#231F20" stroke-width="2" stroke-miterlimit="10" d="M35,19c0,8.837-7.163,16-16,16
	c-8.836,0-16-7.163-16-16c0-8.836,7.164-16,16-16C27.837,3,35,10.164,35,19z M19,35c4.418,0,8-3.582,8-8s-3.582-8-8-8s-8-3.582-8-8
	s3.582-8,8-8 M19,9c-1.104,0-2,0.896-2,2s0.896,2,2,2s2-0.896,2-2S20.104,9,19,9z M21,27c0-1.104-0.896-2-2-2s-2,0.896-2,2
	s0.896,2,2,2S21,28.104,21,27z"/>
</svg>
